<?xml version="1.0" standalone="no"?><!DOCTYPE svg PUBLIC "-//W3C//DTD SVG 1.1//EN" "http://www.w3.org/Graphics/SVG/1.1/DTD/svg11.dtd"><svg t="1680514482220" class="icon" viewBox="0 0 1024 1024" version="1.1" xmlns="http://www.w3.org/2000/svg" p-id="1572" xmlns:xlink="http://www.w3.org/1999/xlink" width="200" height="200"><path d="M512 960c298.7 0 448-149.3 448-448 0-298.6-149.3-448-448-448S64 213.3 64 512s149.3 448 448 448zM302.1 560.1c8.1-9.6 173.1-185.9 187.1-202.3 16-23.9 47.4-6.3 47.4-6.3 10.3 11.8 179.3 196.9 190.7 210.9 8.4 10.3 8.7 31.8-24.4 31.8-9.7 0-96.1-21.3-185.1-21.3s-181 19.3-187.4 21.3c-23.7 7.7-38.5-22-28.3-34.1z" fill="#515151" p-id="1573"></path></svg>